<?xml version="1.0" encoding="UTF-8" standalone="no"?>
<svg
   xmlns:dc="http://purl.org/dc/elements/1.1/"
   xmlns:cc="http://creativecommons.org/ns#"
   xmlns:rdf="http://www.w3.org/1999/02/22-rdf-syntax-ns#"
   xmlns:svg="http://www.w3.org/2000/svg"
   xmlns="http://www.w3.org/2000/svg"
   xmlns:sodipodi="http://sodipodi.sourceforge.net/DTD/sodipodi-0.dtd"
   xmlns:inkscape="http://www.inkscape.org/namespaces/inkscape"
   height="1000"
   width="785.714"
   id="svg2"
   version="1.1"
   inkscape:version="0.91 r13725"
   sodipodi:docname="mds.svg">
  <metadata
     id="metadata10">
    <rdf:RDF>
      <cc:Work
         rdf:about="">
        <dc:format>image/svg+xml</dc:format>
        <dc:type
           rdf:resource="http://purl.org/dc/dcmitype/StillImage" />
      </cc:Work>
    </rdf:RDF>
  </metadata>
  <defs
     id="defs8" />
  <sodipodi:namedview
     pagecolor="#ffffff"
     bordercolor="#666666"
     borderopacity="1"
     objecttolerance="10"
     gridtolerance="10"
     guidetolerance="10"
     inkscape:pageopacity="0"
     inkscape:pageshadow="2"
     inkscape:window-width="1920"
     inkscape:window-height="1058"
     id="namedview6"
     showgrid="false"
     inkscape:zoom="0.944"
     inkscape:cx="472.37673"
     inkscape:cy="584.03519"
     inkscape:window-x="-8"
     inkscape:window-y="-8"
     inkscape:window-maximized="1"
     inkscape:current-layer="svg2" />
  <path
     d="m 236.74361,410.752 0,107.136 c 0,14.88 -5.208,27.528 -15.624,37.944 -10.416,10.416 -23.064,15.624 -37.944,15.624 l -107.135996,0 c -14.88,0 -27.528,-5.208 -37.944,-15.624 -10.416,-10.416 -15.624,-23.064 -15.624,-37.944 l 0,-107.136 c 0,-14.88 5.208,-27.528 15.624,-37.944 10.416,-10.416 23.064,-15.624 37.944,-15.624 l 107.135996,0 c 14.88,0 27.528,5.208 37.944,15.624 10.416,10.416 15.624,23.064 15.624,37.944 z"
     id="path4"
     inkscape:connector-curvature="0"
     style="fill:#666666;fill-opacity:1"
     sodipodi:nodetypes="sssssssssssss" />
  <path
     d="m 435.13072,720.21018 0,107.136 c 0,14.88 -5.208,27.528 -15.624,37.944 -10.416,10.416 -23.064,15.624 -37.944,15.624 l -107.136,0 c -14.88,0 -27.528,-5.208 -37.944,-15.624 -10.416,-10.416 -15.624,-23.064 -15.624,-37.944 l 0,-107.136 c 0,-14.88 5.208,-27.528 15.624,-37.944 10.416,-10.416 23.064,-15.624 37.944,-15.624 l 107.136,0 c 14.88,0 27.528,5.208 37.944,15.624 10.416,10.416 15.624,23.064 15.624,37.944 z"
     id="path4-5"
     inkscape:connector-curvature="0"
     style="fill:#666666;fill-opacity:1"
     sodipodi:nodetypes="sssssssssssss" />
  <path
     d="m 784.24805,258.80061 0,107.136 c 0,14.88 -5.208,27.528 -15.624,37.944 -10.416,10.416 -23.064,15.624 -37.944,15.624 l -107.136,0 c -14.88,0 -27.528,-5.208 -37.944,-15.624 -10.416,-10.416 -15.624,-23.064 -15.624,-37.944 l 0,-107.136 c 0,-14.88 5.208,-27.528 15.624,-37.944 10.416,-10.416 23.064,-15.624 37.944,-15.624 l 107.136,0 c 14.88,0 27.528,5.208 37.944,15.624 10.416,10.416 15.624,23.064 15.624,37.944 z"
     id="path4-5-9"
     inkscape:connector-curvature="0"
     style="fill:#666666;fill-opacity:1"
     sodipodi:nodetypes="sssssssssssss" />
  <path
     d="m 427.05126,120.16081 0,107.136 c 0,14.88 -5.208,27.528 -15.624,37.944 -10.416,10.416 -23.064,15.624 -37.944,15.624 l -107.136,0 c -14.88,0 -27.528,-5.208 -37.944,-15.624 -10.416,-10.416 -15.624,-23.064 -15.624,-37.944 l 0,-107.136 c 0,-14.88 5.208,-27.527998 15.624,-37.943998 10.416,-10.416 23.064,-15.624 37.944,-15.624 l 107.136,0 c 14.88,0 27.528,5.208 37.944,15.624 10.416,10.416 15.624,23.063998 15.624,37.943998 z"
     id="path4-5-9-9"
     inkscape:connector-curvature="0"
     style="fill:#666666;fill-opacity:1"
     sodipodi:nodetypes="sssssssssssss" />
</svg>
